<svg xmlns="http://www.w3.org/2000/svg" viewBox="0 0 512 512">
  <rect width="512" height="512" rx="104" fill="#14213d"/>
  <circle cx="256" cy="256" r="174" fill="#f7faf9"/>
  <path fill="#0f7a5a" d="M256 88a168 168 0 0 1 145 83l-54 28-44-28-47 28-47-28-44 28-54-28A168 168 0 0 1 256 88Z"/>
  <path fill="#1769b3" d="m111 341 54-28 44 28 47-28 47 28 44-28 54 28a168 168 0 0 1-290 0Z"/>
  <path fill="#f6b919" d="M256 199 373 256 256 313 139 256l117-57Z"/>
  <circle cx="256" cy="256" r="52" fill="#14213d"/>
  <path fill="#fff" d="M256 217a39 39 0 1 1 0 78 39 39 0 0 1 0-78Zm0 19a20 20 0 1 0 0 40 20 20 0 0 0 0-40Z"/>
</svg>
